<svg xmlns="http://www.w3.org/2000/svg" width="1024" height="1024" viewBox="0 0 1024 1024" version="1.1"><path d="M 435.362 209.929 C 414.865 215.454, 399.343 229.846, 393.106 249.111 L 391.937 252.722 383.718 253.237 C 357.847 254.858, 334.935 274.110, 330.002 298.372 C 329.345 301.602, 328.963 307.951, 329.154 312.483 L 329.500 320.722 323.819 326.314 C 302.824 346.981, 295.864 376.221, 305.183 404.608 L 307.257 410.925 304.189 415.712 C 287.510 441.741, 286.937 472.244, 302.647 497.713 L 307.096 504.926 305.483 512.713 C 304.443 517.732, 303.956 524.333, 304.113 531.284 L 304.357 542.069 299.774 546.784 C 286.209 560.742, 277.754 583.923, 279.421 602.590 L 280.054 609.681 274.277 613.508 C 256.712 625.146, 243.417 643.862, 237.842 664.802 C 235.140 674.951, 234.894 694.385, 237.339 704.500 C 238.889 710.908, 242.814 722, 243.533 722 C 243.698 722, 251.409 718.208, 260.667 713.572 C 282.455 702.664, 307.065 692.866, 321.437 689.377 C 327.938 687.799, 343.772 685.298, 368.476 681.946 C 377.263 680.754, 385.430 679.407, 386.626 678.952 C 388.376 678.287, 389.838 674.942, 394.118 661.813 C 398.680 647.819, 400.002 644.884, 403.423 641.166 C 408.247 635.922, 412.814 633.478, 421.600 631.441 C 428.865 629.756, 448.364 629.579, 456.628 631.123 C 462.250 632.173, 481.885 632.448, 482.843 631.490 C 483.204 631.129, 483.522 627.581, 483.548 623.605 C 483.585 618.077, 484.067 615.684, 485.597 613.438 C 488.478 609.207, 489.536 606.354, 491.024 598.808 C 493.863 584.413, 487.206 570.160, 472.666 559.500 C 470.157 557.660, 470.021 557.220, 470.969 554.007 C 472.422 549.085, 472.229 538.449, 470.575 532.236 C 467.911 522.228, 460.267 511.775, 452.790 507.915 C 447.394 505.130, 437.494 505.359, 427.599 508.500 C 417.933 511.568, 415.918 511.599, 410.246 508.766 C 405.490 506.391, 397.461 498.291, 395.043 493.429 C 394.242 491.818, 393.069 489.825, 392.438 489 C 391.415 487.664, 389.712 482.865, 386.911 473.429 C 385.269 467.895, 385.852 455.784, 388.092 448.915 C 390.300 442.142, 396.321 433.356, 400.816 430.346 C 409.445 424.569, 413.821 423.117, 425.500 422.157 L 433.500 421.500 433.114 399.861 C 432.732 378.494, 432.754 378.213, 434.858 377.545 C 436.253 377.102, 438.630 377.737, 441.744 379.383 C 456.363 387.113, 469.207 388.990, 486.414 385.911 C 494.030 384.548, 499.101 382.529, 506.331 377.982 L 512.163 374.315 517.831 377.245 C 520.949 378.856, 524.175 380.730, 525 381.408 C 526.878 382.952, 533.117 384.794, 534.690 384.270 C 535.497 384.001, 534.742 380.822, 532.293 374.188 C 530.326 368.860, 527.181 359.373, 525.305 353.106 C 521.376 339.981, 519.314 335.573, 515.342 331.803 C 510.869 327.558, 506.157 326.148, 492.831 325.066 C 475.902 323.691, 461.173 319.365, 445.569 311.186 C 435.789 306.059, 430.344 300.480, 429.477 294.695 C 428.047 285.159, 432.106 279.001, 441.094 277.073 C 447.895 275.615, 453.147 277.079, 458.726 281.990 C 461.907 284.790, 464.164 285.906, 467.274 286.216 C 472.957 286.783, 488.013 285.387, 489.218 284.182 C 489.840 283.560, 488.016 282.060, 484.105 279.975 C 473.853 274.511, 467.123 265.837, 462.399 252 C 459.568 243.707, 459.770 226.872, 462.817 217.144 C 464.085 213.099, 464.838 209.505, 464.491 209.158 C 464.144 208.811, 459.054 208.410, 453.180 208.266 C 445.129 208.069, 440.743 208.479, 435.362 209.929 M 729.690 532.436 C 728.527 533.318, 728.264 534.045, 728.954 534.472 C 729.545 534.837, 730.903 536.850, 731.972 538.945 C 733.658 542.249, 736.597 544.736, 737.615 543.718 C 737.796 543.538, 736.362 541.041, 734.428 538.170 C 732.495 535.299, 731.184 532.511, 731.516 531.975 C 732.320 530.673, 731.862 530.789, 729.690 532.436 M 707 542.651 C 697.892 546.088, 675.297 551.480, 664 552.913 C 658.775 553.576, 653.124 554.321, 651.443 554.568 C 649.143 554.907, 646.951 556.741, 642.587 561.980 C 634.302 571.927, 622.889 581.609, 612.500 587.505 C 609.750 589.066, 605.644 591.825, 603.375 593.636 C 601.106 595.447, 598.131 597.439, 596.762 598.063 C 595.216 598.767, 593.181 601.482, 591.387 605.234 C 588.765 610.718, 588.500 612.246, 588.500 621.886 L 588.500 632.500 602.719 632.143 C 619.868 631.712, 625.812 632.856, 630.337 637.457 C 632.077 639.226, 637.313 647.384, 641.974 655.586 C 646.635 663.789, 651.585 671.655, 652.974 673.066 C 654.751 674.871, 657.428 675.997, 662 676.863 C 681.039 680.467, 709.159 692.153, 731.910 705.913 C 736.535 708.711, 740.638 711, 741.028 711 C 742.025 711, 744.718 700.893, 746.090 692 C 749.789 668.033, 740.781 639.976, 723.723 622.329 L 718.724 617.158 721.305 610.712 C 727.263 595.828, 728.504 577.230, 724.556 562 C 722.801 555.232, 716.007 540.762, 714.415 540.404 C 713.912 540.291, 710.575 541.302, 707 542.651" stroke="none" fill="#fd64b0" fill-rule="evenodd"/><path d="M 732.500 531 C 732.160 531.550, 732.246 532.007, 732.691 532.015 C 733.136 532.024, 732.993 532.361, 732.374 532.765 C 731.612 533.263, 732.339 535.110, 734.624 538.481 C 738.448 544.124, 739.173 543.511, 735.583 537.670 C 734.289 535.563, 733.455 532.976, 733.731 531.920 C 734.265 529.879, 733.531 529.331, 732.500 531 M 529.642 566.180 C 527.469 567.396, 527.557 570.289, 529.829 572.345 C 532.089 574.391, 533.395 574.433, 534.989 572.513 C 537.869 569.043, 533.587 563.972, 529.642 566.180 M 537.452 571.646 C 536.079 573.127, 535 575.508, 535 577.055 C 535 579.750, 535.132 579.814, 540.394 579.659 C 543.360 579.571, 545.561 579.126, 545.284 578.669 C 545.008 578.211, 545.618 577.960, 546.641 578.110 C 547.663 578.260, 549.519 578.040, 550.764 577.620 C 552.963 576.878, 552.980 576.775, 551.349 574.013 C 548.115 568.540, 541.392 567.394, 537.452 571.646 M 526.465 575.057 C 526.105 575.639, 525.690 577.220, 525.542 578.572 C 525.337 580.437, 525.842 581.173, 527.634 581.623 C 531.088 582.490, 533 581.401, 533 578.567 C 533 575.148, 528.051 572.490, 526.465 575.057 M 434.280 630.736 C 436.909 630.943, 440.959 630.940, 443.280 630.731 C 445.601 630.521, 443.450 630.352, 438.500 630.355 C 433.550 630.358, 431.651 630.530, 434.280 630.736 M 544.750 631.723 C 546.538 631.945, 549.462 631.945, 551.250 631.723 C 553.038 631.502, 551.575 631.320, 548 631.320 C 544.425 631.320, 542.962 631.502, 544.750 631.723 M 607.750 632.723 C 609.538 632.945, 612.462 632.945, 614.250 632.723 C 616.038 632.502, 614.575 632.320, 611 632.320 C 607.425 632.320, 605.962 632.502, 607.750 632.723 M 584.750 633.732 C 587.087 633.943, 590.913 633.943, 593.250 633.732 C 595.587 633.522, 593.675 633.349, 589 633.349 C 584.325 633.349, 582.413 633.522, 584.750 633.732 M 520.830 663.005 C 520.555 663.827, 520.538 680.362, 520.793 699.750 C 521.192 730.054, 521.054 735, 519.810 735 C 516.769 735, 507.268 731.687, 501.883 728.749 C 495.617 725.331, 493 725.562, 493 729.534 C 493 731.784, 493.966 732.573, 500.250 735.457 C 506.408 738.282, 515.034 741.454, 519.750 742.626 C 520.655 742.851, 521 745.965, 521 753.914 C 521 785.604, 525.334 812.217, 538.522 861.500 C 549.682 903.205, 551.418 913.368, 551.419 937 C 551.419 950.930, 550.033 970.417, 548.539 977.496 C 548.422 978.048, 547.977 980.750, 547.550 983.500 C 546.438 990.661, 541.134 1013.729, 539.438 1018.785 C 537.556 1024.395, 537.457 1024.167, 541.625 1023.810 C 545.607 1023.469, 545.350 1024.064, 550.468 1003.384 C 557.713 974.109, 560.562 934.044, 557.003 911.500 C 556.481 908.200, 555.780 903.700, 555.443 901.500 C 554.508 895.391, 551.297 881.902, 547.349 867.500 C 542.350 849.264, 537.147 829.556, 536.606 826.815 C 531.163 799.197, 529.528 787.793, 528.317 769 C 527.560 757.266, 527.498 745.115, 528.192 744.518 C 528.361 744.373, 531.418 743.978, 534.984 743.641 C 543.429 742.844, 550.500 739.341, 550.500 735.954 C 550.500 732.642, 547.942 732.348, 541.863 734.964 C 538.621 736.358, 535.340 736.999, 532.454 736.802 L 528.022 736.500 527.570 705.485 L 527.117 674.470 524.224 667.990 C 522.501 664.132, 521.128 662.115, 520.830 663.005 M 420 708.531 C 420 711.629, 422.597 712.831, 424.714 710.714 C 426.831 708.597, 425.629 706, 422.531 706 C 420.490 706, 420 706.490, 420 708.531 M 436.571 720.571 C 435.388 721.754, 435.257 722.612, 436.037 724.069 C 437.215 726.270, 439.049 726.551, 440.800 724.800 C 442.551 723.049, 442.270 721.215, 440.069 720.037 C 438.612 719.257, 437.754 719.388, 436.571 720.571 M 411.153 724.247 C 409.484 725.916, 409.738 728.686, 411.627 729.410 C 413.488 730.124, 416 728.402, 416 726.413 C 416 724.385, 412.555 722.845, 411.153 724.247 M 747.739 730.750 C 744.423 734.444, 737.911 748.017, 734.590 758.156 C 729.489 773.726, 724.768 799.065, 723.440 818 C 723.189 821.575, 722.766 825.777, 722.499 827.337 C 722.233 828.898, 721.751 836.323, 721.429 843.837 C 721.107 851.352, 720.651 858.105, 720.417 858.844 C 719.857 860.609, 719.153 900.445, 718.476 968.750 L 717.927 1024 721.464 1024 L 725 1024 725.094 1007.250 C 725.146 998.038, 725.337 981.275, 725.518 970 C 725.698 958.725, 726.130 928.606, 726.476 903.068 C 726.823 877.531, 727.253 856.381, 727.432 856.068 C 727.612 855.756, 728.054 850.325, 728.415 844 C 728.775 837.675, 729.266 830.700, 729.504 828.500 C 729.742 826.300, 730.188 821.575, 730.494 818 C 731.618 804.901, 735.664 780.278, 738.467 769.481 C 740.969 759.844, 745.296 748.933, 749.631 741.325 C 752.034 737.108, 754 733.318, 754 732.901 C 754 731.909, 751.079 729, 750.084 729 C 749.658 729, 748.603 729.788, 747.739 730.750 M 275.250 740.662 C 273.097 741.531, 273.872 744.545, 277.454 749.236 C 291.732 767.935, 297.329 798.757, 300.476 876 C 300.712 881.775, 301.204 913.950, 301.570 947.500 C 301.937 981.050, 302.296 1011.875, 302.368 1016 L 302.500 1023.500 306 1023.500 L 309.500 1023.500 309.246 994.500 C 308.238 879.367, 306.916 840.550, 302.913 808.500 C 299.263 779.270, 294.606 762.656, 286.516 750 C 280.436 740.489, 278.879 739.198, 275.250 740.662 M 215 771.500 C 210.903 775.625, 207.775 779, 208.050 779 C 208.325 779, 211.903 775.625, 216 771.500 C 220.097 767.375, 223.225 764, 222.950 764 C 222.675 764, 219.097 767.375, 215 771.500 M 702.362 992.500 C 701.477 994.805, 702.720 997, 704.910 997 C 707.385 997, 708.313 995.562, 707.497 992.991 C 706.757 990.661, 703.198 990.320, 702.362 992.500 M 688.332 1005.578 C 687.529 1007.669, 690.198 1010.245, 692.322 1009.430 C 693.246 1009.075, 694 1007.710, 694 1006.393 C 694 1004.499, 693.472 1004, 691.469 1004 C 690.076 1004, 688.665 1004.710, 688.332 1005.578" stroke="none" fill="#2a3036" fill-rule="evenodd"/><path d="M 506.331 377.982 C 499.101 382.529, 494.030 384.548, 486.414 385.911 C 469.207 388.990, 456.363 387.113, 441.744 379.383 C 438.630 377.737, 436.253 377.102, 434.858 377.545 C 432.754 378.213, 432.732 378.494, 433.114 399.861 L 433.500 421.500 425.500 422.157 C 413.821 423.117, 409.445 424.569, 400.816 430.346 C 396.321 433.356, 390.300 442.142, 388.092 448.915 C 385.852 455.784, 385.269 467.895, 386.911 473.429 C 389.712 482.865, 391.415 487.664, 392.438 489 C 393.069 489.825, 394.242 491.818, 395.043 493.429 C 397.461 498.291, 405.490 506.391, 410.246 508.766 C 415.918 511.599, 417.933 511.568, 427.599 508.500 C 437.494 505.359, 447.394 505.130, 452.790 507.915 C 460.267 511.775, 467.911 522.228, 470.575 532.236 C 472.229 538.449, 472.422 549.085, 470.969 554.007 C 470.021 557.220, 470.157 557.660, 472.666 559.500 C 482.882 566.990, 488.680 575.436, 491.068 586.308 C 492.913 594.705, 490.611 606.077, 485.569 613.477 C 484.081 615.661, 483.514 618.191, 483.439 622.977 C 483.298 632.085, 483.409 631.838, 479.250 632.318 C 477.188 632.555, 478.875 632.534, 483 632.270 C 496.098 631.433, 525.348 629.962, 529.500 629.932 C 531.700 629.917, 543.400 630.570, 555.500 631.383 C 567.600 632.197, 579.975 632.894, 583 632.932 L 588.500 633 588.500 622.140 C 588.500 612.229, 588.752 610.751, 591.387 605.238 C 593.182 601.481, 595.215 598.767, 596.762 598.063 C 598.131 597.439, 601.106 595.447, 603.375 593.636 C 605.644 591.825, 609.750 589.063, 612.500 587.499 C 623.325 581.343, 639.405 567.261, 645.693 558.432 L 647.780 555.500 630.140 555.477 C 619.464 555.463, 610.131 554.940, 606.500 554.151 C 597.725 552.244, 590.029 549.762, 590.505 548.992 C 590.733 548.623, 589.384 548.263, 587.507 548.193 C 585.162 548.105, 582.146 549.250, 577.860 551.855 C 570.285 556.461, 568.976 558.191, 571.174 560.691 C 576.588 566.851, 573.286 570.477, 557.637 575.550 C 551.511 577.536, 545.503 579.799, 544.285 580.580 C 540.818 582.803, 528.228 582.467, 524.567 580.054 C 519.387 576.639, 517.777 571.374, 520.061 565.315 C 521.356 561.881, 526.521 556.342, 530.250 554.389 C 532.746 553.082, 533 552.437, 533 547.402 C 533 543.274, 532.354 540.753, 530.472 537.542 C 529.081 535.169, 526.520 529.464, 524.781 524.864 C 521.835 517.072, 521.616 515.611, 521.578 503.500 C 521.531 488.484, 523.091 481.076, 528.944 468.500 C 535.956 453.437, 546.628 439.385, 557.323 431.136 L 562.980 426.772 558.460 421.744 C 552.115 414.687, 543.330 401.053, 539.176 391.817 C 537.240 387.513, 535.171 384.078, 534.578 384.184 C 532.637 384.532, 526.533 382.806, 525 381.476 C 524.175 380.760, 520.949 378.856, 517.831 377.245 L 512.163 374.315 506.331 377.982" stroke="none" fill="#cb7e4c" fill-rule="evenodd"/><path d="M 545 152.461 C 540.875 153.224, 535.515 153.882, 533.088 153.924 C 530.402 153.970, 527.077 154.919, 524.588 156.349 C 522.340 157.641, 516.317 160.414, 511.204 162.510 C 502.693 166.001, 501.082 167.132, 492.124 175.911 C 486.743 181.185, 480.286 188.439, 477.776 192.031 C 475.265 195.623, 471.838 200.032, 470.159 201.829 C 464.008 208.415, 459.485 225.538, 460.343 239 C 461.560 258.119, 470.537 273.128, 485.116 280.422 C 491.455 283.593, 491.779 283.907, 489.491 284.673 C 487.052 285.490, 487.080 285.547, 491.761 289.293 C 502.432 297.832, 511.158 311.571, 514.806 325.577 C 515.798 329.385, 517.607 334.075, 518.826 336 C 520.045 337.925, 522.194 343.325, 523.602 348 C 527.504 360.961, 535.980 384.651, 539.574 392.640 C 543.455 401.268, 552.288 414.880, 558.460 421.744 L 562.980 426.772 557.323 431.136 C 548.113 438.239, 537.178 451.891, 531.006 463.988 L 528.909 468.099 531.548 476.749 C 539.451 502.659, 552.018 522.530, 567.406 533.444 C 573.953 538.087, 585.176 543.970, 591.236 545.935 C 593.291 546.601, 595.227 547.558, 595.538 548.062 C 595.849 548.565, 595.406 548.709, 594.552 548.382 C 593.698 548.054, 592.212 548.108, 591.250 548.500 C 589.872 549.063, 590.350 549.522, 593.500 550.658 C 610.367 556.745, 638.130 557.236, 670.500 552.020 C 685.914 549.537, 713.366 541.419, 723.160 536.449 C 734.863 530.511, 764.413 505.427, 771.341 495.550 C 796.655 459.462, 797.470 391.962, 773.397 325.205 C 764.527 300.606, 751.164 276.873, 734.712 256.500 C 718.930 236.958, 689.876 211.606, 663.929 194.738 C 637.473 177.539, 590.580 153.447, 581.578 152.429 C 570.641 151.192, 551.776 151.209, 545 152.461 M 521.248 632.106 C 515.533 635.437, 512.999 638.315, 513.001 641.473 C 513.002 642.588, 517.098 652.050, 522.103 662.500 C 527.109 672.950, 533.785 686.900, 536.940 693.500 C 540.094 700.100, 543.465 706.153, 544.431 706.950 C 547.514 709.496, 552.117 708.538, 561.343 703.433 C 570.655 698.280, 573.703 694.791, 572.421 690.750 C 571.391 687.507, 537.023 632.763, 534.752 630.750 C 531.850 628.177, 527.184 628.645, 521.248 632.106 M 244.249 750.491 C 218.340 761.753, 183.262 805.238, 153.897 862.500 C 124.654 919.522, 103.829 979.633, 100.456 1016.750 L 99.797 1024 106.760 1024 L 113.723 1024 114.248 1015.250 C 115.955 986.837, 135.798 928.340, 160.393 879.214 C 191.415 817.250, 223.107 776.176, 250.734 762.129 C 255.463 759.724, 256.894 756.560, 254.935 752.843 C 252.713 748.626, 249.943 748.016, 244.249 750.491 M 266.369 767.426 C 260.431 769.284, 246.686 778.583, 238.199 786.484 C 222.577 801.029, 200.764 829.707, 185.325 856 C 153.892 909.532, 125.009 987.217, 125.001 1018.250 L 125 1024 131.500 1024 L 138 1024 138 1020.131 C 138 1018.003, 138.686 1012.266, 139.524 1007.381 C 149.197 951, 188.214 867.231, 227.939 817.553 C 238.518 804.324, 253.599 789.965, 262.974 784.195 C 267.617 781.338, 271.943 779, 272.586 779 C 276.498 779, 277.584 770.701, 274.046 767.836 C 271.433 765.720, 271.765 765.738, 266.369 767.426 M 762 771 C 759.345 773.655, 759.457 777.693, 762.250 780.048 C 763.487 781.091, 766.525 783.590, 768.999 785.601 C 777.725 792.694, 786.901 804.442, 798.458 823.318 C 830.251 875.248, 862.419 966.131, 866.568 1015.750 L 867.258 1024 873.629 1024 C 881.065 1024, 880.596 1025.381, 878.922 1008.424 C 877.590 994.928, 874.201 978.426, 868.451 957.433 C 846.339 876.712, 803.305 792.484, 773.820 772.217 C 768.440 768.519, 764.851 768.149, 762 771" stroke="none" fill="#fcfcfd" fill-rule="evenodd"/><path d="M 532.141 143.020 C 530.314 148.593, 529.053 153.387, 529.339 153.672 C 529.625 153.958, 534.503 153.501, 540.179 152.657 C 556.868 150.175, 562.975 149.848, 572.440 150.931 C 577.357 151.493, 581.514 151.819, 581.678 151.656 C 581.936 151.397, 541.065 134.680, 536.981 133.373 C 535.819 133.002, 534.683 135.265, 532.141 143.020 M 464 163.573 C 464 164.198, 470.893 198.025, 471.271 199.254 C 471.398 199.669, 474.652 195.671, 478.501 190.370 C 482.351 185.070, 488.419 178.093, 491.986 174.866 L 498.472 169 494.343 169 C 492.072 169, 484.878 167.651, 478.357 166.003 C 466.257 162.944, 464 162.562, 464 163.573 M 439.942 277.948 C 432.809 280.112, 430 283.965, 430 291.582 C 430 299.926, 434.537 304.736, 449.500 312.253 C 464.401 319.740, 477.706 323.302, 495.251 324.505 C 504.710 325.153, 509.010 326.269, 513.152 329.152 L 515.805 330.997 513.785 324.249 C 509.628 310.359, 501.941 298.320, 492.121 290.321 C 487.143 286.266, 486.332 285.937, 482.788 286.536 C 476.298 287.632, 465.531 287.351, 462.942 286.018 C 461.599 285.326, 459.150 283.524, 457.500 282.014 C 452.644 277.570, 446.147 276.065, 439.942 277.948 M 525.674 477.656 C 518.882 499.208, 520.685 519.361, 531.048 537.735 C 535.647 545.891, 534.987 552.476, 529.259 555.558 C 527.275 556.626, 524.380 559.255, 522.826 561.400 C 519.242 566.346, 518.912 573.347, 522.073 577.365 C 524.272 580.161, 526.579 580.950, 525.676 578.597 C 525.380 577.826, 525.732 576.381, 526.459 575.387 C 527.602 573.824, 528.150 573.747, 530.500 574.818 C 532.775 575.854, 533.146 576.551, 532.775 579.083 L 532.330 582.109 537.555 581.552 C 540.429 581.246, 544.067 580.291, 545.640 579.431 L 548.500 577.865 545.500 578.399 C 534.134 580.418, 535 580.512, 535 577.257 C 535 573.501, 539.036 569, 542.405 569 C 546.181 569, 549.479 570.848, 551.348 574.012 L 553.027 576.854 560.478 574.348 C 564.577 572.970, 569.071 570.945, 570.465 569.849 C 573.457 567.496, 573.783 563.666, 571.150 561.807 C 568.929 560.238, 569.165 557.361, 571.674 555.416 C 577.957 550.544, 583.930 547.999, 589.122 547.982 L 594.500 547.963 586.397 544.625 C 559.827 533.679, 543.017 513.714, 532.009 480.029 C 530.313 474.839, 528.750 470.417, 528.536 470.203 C 528.322 469.988, 527.034 473.342, 525.674 477.656 M 757.857 510.419 C 752.603 515.414, 745.104 521.975, 741.192 525 C 737.279 528.025, 734.061 531.048, 734.039 531.719 C 734.016 532.437, 733.282 532.690, 732.250 532.334 C 730.626 531.774, 730.620 531.831, 732.171 533.115 C 733.090 533.877, 735.271 537.200, 737.019 540.500 C 746.749 558.878, 774.929 590.267, 796 606.200 C 809.496 616.405, 830.670 627.142, 838.592 627.799 C 849.510 628.705, 858.288 623.872, 862.619 614.571 C 868.901 601.080, 862.312 585.595, 848.133 580.526 C 826.284 572.715, 800.461 548.551, 774.814 511.915 L 767.409 501.338 757.857 510.419 M 529.642 566.180 C 527.469 567.396, 527.557 570.289, 529.829 572.345 C 532.089 574.391, 533.395 574.433, 534.989 572.513 C 537.869 569.043, 533.587 563.972, 529.642 566.180 M 420.500 632.331 C 412.881 634.314, 408.463 636.774, 404.181 641.419 C 400.874 645.007, 399.422 648.232, 394.596 662.712 L 388.909 679.776 378.204 681.371 C 372.317 682.248, 360.525 683.885, 352 685.010 C 329.325 688.001, 319.051 690.282, 304.500 695.553 C 286.342 702.130, 273.079 707.901, 254.500 717.310 C 226.920 731.276, 209.400 743.633, 190.433 762.498 C 164.223 788.565, 147.045 817.198, 117.236 884.500 C 98.678 926.399, 88.559 953.866, 81.499 981.500 C 78.240 994.257, 74 1016.942, 74 1021.625 L 74 1024 86.849 1024 L 99.698 1024 100.327 1014.750 C 103.340 970.447, 140.279 877.315, 177.754 819.539 C 199.613 785.838, 220.989 762.509, 239.083 752.604 C 249.892 746.687, 256.506 748.280, 255.816 756.635 C 255.526 760.156, 255.055 760.699, 250 763.347 C 223.871 777.032, 195.408 813.158, 165.101 871.105 C 146.250 907.147, 129.143 950.781, 120.498 984.872 C 117.122 998.183, 114.018 1015.577, 114.006 1021.250 C 114 1023.884, 114.211 1024, 119 1024 L 124 1024 124 1020.493 C 124 1008.674, 130.347 980.788, 138.338 957.500 C 161.755 889.252, 197.916 826.193, 234.988 788.955 C 247.708 776.178, 263.354 766, 270.276 766 C 275.557 766, 278.471 771.004, 276.373 776.469 C 276.029 777.368, 272.766 779.603, 269.123 781.438 C 243.456 794.364, 212.387 833.286, 183.264 889 C 161.709 930.236, 142.522 984.161, 139.498 1012 C 139.169 1015.025, 138.677 1018.962, 138.405 1020.750 L 137.909 1024 220.205 1024.001 L 302.500 1024.002 302.350 1016.251 C 302.268 1011.988, 301.908 981.050, 301.552 947.500 C 301.196 913.950, 300.712 881.775, 300.476 876 C 297.329 798.757, 291.732 767.935, 277.454 749.236 C 273.594 744.181, 273.088 741.424, 275.859 740.545 C 278.990 739.551, 280.462 740.787, 285.673 748.790 C 291.976 758.470, 295.099 766.404, 298.352 781 C 306.019 815.399, 308.058 855.405, 309.250 994.750 L 309.500 1024 423.635 1024 L 537.770 1024 539.315 1019.250 C 541.145 1013.622, 546.444 990.619, 547.550 983.500 C 547.977 980.750, 548.422 978.048, 548.539 977.496 C 550.033 970.417, 551.419 950.930, 551.419 937 C 551.418 913.368, 549.682 903.205, 538.522 861.500 C 525.334 812.217, 521 785.604, 521 753.914 C 521 745.965, 520.655 742.851, 519.750 742.626 C 515.034 741.454, 506.408 738.282, 500.250 735.457 C 493.966 732.573, 493 731.784, 493 729.534 C 493 725.562, 495.617 725.331, 501.883 728.749 C 507.247 731.675, 516.767 735, 519.782 735 C 520.990 735, 521.132 729.399, 520.737 697.250 L 520.274 659.500 516.082 650.895 C 511.090 640.648, 511.269 638.294, 517.381 633.782 L 521.500 630.741 506 631.592 C 488.202 632.570, 469.199 632.595, 443.500 631.675 C 430.157 631.197, 424.206 631.367, 420.500 632.331 M 537 631.695 C 537 631.990, 541.868 639.941, 547.817 649.365 C 575.418 693.087, 575.399 693.048, 571.074 697.690 C 568.170 700.808, 552.564 709, 549.530 709 C 544.427 709, 542.875 707.045, 534.959 690.650 L 527.162 674.500 527.591 705.500 L 528.019 736.500 532.452 736.802 C 535.340 736.999, 538.620 736.358, 541.863 734.964 C 547.942 732.348, 550.500 732.642, 550.500 735.954 C 550.500 739.341, 543.429 742.844, 534.984 743.641 C 531.418 743.978, 528.361 744.373, 528.192 744.518 C 527.498 745.115, 527.560 757.266, 528.317 769 C 529.528 787.793, 531.163 799.197, 536.606 826.815 C 537.147 829.556, 542.350 849.264, 547.349 867.500 C 551.297 881.902, 554.508 895.391, 555.443 901.500 C 555.780 903.700, 556.485 908.210, 557.010 911.523 C 560.682 934.668, 557.415 977.420, 549.794 1005.979 C 548.690 1010.116, 547.200 1015.862, 546.484 1018.750 L 545.180 1024 631.590 1024 L 718 1024 718.215 1004.250 C 718.333 993.388, 718.489 981.350, 718.560 977.500 C 718.632 973.650, 718.858 947.325, 719.062 919 C 719.266 890.675, 719.740 865.025, 720.115 862 C 720.490 858.975, 721.077 850.545, 721.420 843.266 C 721.763 835.988, 722.255 828.788, 722.514 827.266 C 722.772 825.745, 723.189 821.575, 723.440 818 C 725.488 788.815, 733.182 756.781, 742.216 739.825 C 746.938 730.962, 748.973 728.669, 751.317 729.568 C 754.438 730.766, 754.033 733.600, 749.640 741.310 C 738.001 761.734, 732.098 790.235, 728.474 843.500 C 728.175 847.900, 727.729 853.525, 727.483 856 C 727.023 860.626, 726.451 894.160, 725.422 976.750 L 724.833 1024 795.564 1024 L 866.295 1024 865.621 1014.415 C 863.983 991.109, 854.509 954.354, 839.479 913 C 817.616 852.841, 788.079 800.570, 766.947 784.640 C 759.010 778.656, 758.130 777.047, 760.303 772.491 C 763.811 765.134, 771.164 767.408, 782.960 779.500 C 792.258 789.031, 794.719 792.054, 801.679 802.500 C 825.241 837.860, 849.879 892.543, 864.984 943 C 874.597 975.111, 879.999 1001.465, 880 1016.250 L 880 1024 885.850 1024 L 891.700 1024 892.286 1012.897 C 893.439 991.037, 890.395 962.269, 884.438 938.745 C 877.312 910.601, 860.294 866.469, 844.201 834.400 C 822.777 791.709, 795.155 755.165, 765.196 729.878 C 752.641 719.280, 746.155 714.830, 728.500 704.704 C 705.355 691.429, 680.817 681.140, 666 678.499 C 656.931 676.882, 653.998 675.814, 651.909 673.365 C 651.035 672.339, 646.170 664.300, 641.099 655.500 C 636.028 646.700, 630.774 638.503, 629.423 637.284 C 625.197 633.470, 619.893 632.693, 602.603 633.352 C 593.859 633.685, 579.909 633.539, 571.603 633.027 C 547.062 631.514, 537 631.127, 537 631.695 M 420 708.531 C 420 711.629, 422.597 712.831, 424.714 710.714 C 426.831 708.597, 425.629 706, 422.531 706 C 420.490 706, 420 706.490, 420 708.531 M 436.571 720.571 C 435.388 721.754, 435.257 722.612, 436.037 724.069 C 437.215 726.270, 439.049 726.551, 440.800 724.800 C 442.551 723.049, 442.270 721.215, 440.069 720.037 C 438.612 719.257, 437.754 719.388, 436.571 720.571 M 411.153 724.247 C 409.484 725.916, 409.738 728.686, 411.627 729.410 C 413.488 730.124, 416 728.402, 416 726.413 C 416 724.385, 412.555 722.845, 411.153 724.247 M 702.362 992.500 C 701.477 994.805, 702.720 997, 704.910 997 C 707.385 997, 708.313 995.562, 707.497 992.991 C 706.757 990.661, 703.198 990.320, 702.362 992.500 M 688.332 1005.578 C 687.529 1007.669, 690.198 1010.245, 692.322 1009.430 C 693.246 1009.075, 694 1007.710, 694 1006.393 C 694 1004.499, 693.472 1004, 691.469 1004 C 690.076 1004, 688.665 1004.710, 688.332 1005.578" stroke="none" fill="#080808" fill-rule="evenodd"/></svg>