<svg xmlns="http://www.w3.org/2000/svg" width="1024" height="1024" viewBox="0 0 1024 1024" version="1.1"><path d="M 618.728 274.722 C 620.503 274.943, 623.653 274.946, 625.728 274.730 C 627.802 274.513, 626.350 274.333, 622.500 274.328 C 618.650 274.324, 616.952 274.501, 618.728 274.722 M 660 289.500 C 662.987 292.525, 665.657 295, 665.932 295 C 666.207 295, 663.987 292.525, 661 289.500 C 658.013 286.475, 655.343 284, 655.068 284 C 654.793 284, 657.013 286.475, 660 289.500 M 529 407.965 C 529 408.496, 529.730 411.080, 530.622 413.707 C 532.274 418.574, 532.613 425.487, 531.390 429.354 C 530.723 431.461, 523.173 444.019, 521.983 445 C 521.250 445.604, 516.877 456.587, 514.616 463.500 C 510.983 474.609, 511.157 490.857, 515.035 502.606 C 516.547 507.186, 521.642 516.936, 523.736 519.256 C 527.335 523.243, 525.688 518.536, 521.368 512.486 C 517.913 507.649, 516.611 499.085, 517.944 489.968 C 519.841 476.994, 525.472 459.488, 529.521 453.971 C 533.294 448.831, 551.607 431, 553.113 431 C 554.741 431, 554.026 428.333, 551.880 426.405 C 549.668 424.417, 544.869 417.174, 541.507 410.750 C 539.618 407.139, 539.350 407, 534.273 407 C 531.373 407, 529 407.434, 529 407.965 M 410.885 446.319 C 406.384 448.003, 401.302 451.568, 400.040 453.925 C 398.561 456.689, 402.078 464.961, 405.493 466.750 C 408.804 468.485, 412.998 467.101, 413.004 464.271 C 413.010 461.298, 416.726 456.194, 420.206 454.379 C 424.501 452.139, 430.661 452.530, 434.736 455.300 C 437.808 457.388, 441 463.169, 441 466.643 C 441 467.997, 441.247 468.040, 442.598 466.919 C 446.475 463.701, 441.130 452.919, 433.417 448.398 C 427.847 445.134, 416.781 444.113, 410.885 446.319 M 503.709 470.624 C 503.319 471.014, 503 472.188, 503 473.233 C 503 474.716, 503.604 475.063, 505.750 474.816 C 507.728 474.589, 508.500 473.938, 508.500 472.500 C 508.500 470.491, 505.153 469.181, 503.709 470.624 M 490.667 471.667 C 490.300 472.033, 490 473.158, 490 474.167 C 490 475.456, 490.742 476, 492.500 476 C 494.500 476, 495 475.500, 495 473.500 C 495 471.742, 494.456 471, 493.167 471 C 492.158 471, 491.033 471.300, 490.667 471.667 M 497.993 482.508 C 496.226 484.637, 497.560 487.202, 500.235 486.820 C 503.119 486.409, 503.702 483.446, 501.165 482.088 C 499.689 481.298, 498.912 481.401, 497.993 482.508 M 494 584.914 C 494 587.746, 501.972 592.212, 514.959 596.655 C 525.222 600.166, 526.443 600.853, 529.023 604.570 C 537.772 617.173, 556.604 624.857, 579.844 625.308 L 589.769 625.500 590.235 618.244 C 590.612 612.362, 591.402 609.649, 594.410 603.908 C 597.427 598.148, 597.781 596.927, 596.309 597.361 C 584.393 600.875, 571.407 602.331, 568.900 600.435 C 568.130 599.852, 562.853 599.274, 557.172 599.149 C 540.390 598.781, 518.791 593.537, 504.749 586.421 C 497.016 582.503, 494 582.080, 494 584.914 M 304.320 927 C 304.320 930.575, 304.502 932.038, 304.723 930.250 C 304.945 928.462, 304.945 925.538, 304.723 923.750 C 304.502 921.962, 304.320 923.425, 304.320 927 M 305.413 1005.500 C 305.414 1015.400, 305.564 1019.315, 305.746 1014.199 C 305.928 1009.084, 305.927 1000.984, 305.744 996.199 C 305.561 991.415, 305.412 995.600, 305.413 1005.500 M 723.407 1006 C 723.407 1015.075, 723.559 1018.788, 723.744 1014.250 C 723.929 1009.712, 723.929 1002.288, 723.744 997.750 C 723.559 993.212, 723.407 996.925, 723.407 1006" stroke="none" fill="#fcb5ce" fill-rule="evenodd"/><path d="M 511.533 388.750 C 511.839 390.813, 512.659 397.066, 513.356 402.646 L 514.622 412.792 500.061 413.381 C 492.053 413.706, 473.913 414.253, 459.750 414.598 L 434 415.226 434 417.913 C 434 421.935, 432.238 422.999, 425.550 423.012 C 409.428 423.043, 396.561 430.979, 390.237 444.793 C 385.018 456.193, 386.274 474.590, 393.250 488.935 C 396.882 496.406, 406.395 506.609, 412.298 509.366 C 419.367 512.667, 427.097 513.511, 434.174 511.755 C 437.653 510.892, 441.138 510.031, 441.917 509.843 C 443.467 509.468, 443.736 510.273, 446.964 525 C 449.678 537.382, 454.858 547.662, 465.589 561.964 C 470.319 568.269, 475.728 576.481, 477.608 580.214 C 481.293 587.532, 484.456 598.040, 483.246 598.944 C 482.836 599.250, 482.500 609.400, 482.500 621.500 C 482.500 646.370, 482.403 646.767, 474.487 654.460 C 468.473 660.306, 458.130 665.472, 440 671.686 C 438.903 672.062, 439.172 672.468, 441 673.195 C 442.375 673.741, 443.950 674.287, 444.500 674.407 C 446.777 674.905, 462.997 683.572, 469.500 687.767 C 481.613 695.579, 490.161 703.112, 506.250 720.147 C 507.212 721.166, 508 722.203, 508 722.452 C 508 722.701, 509.972 725.738, 512.382 729.202 C 514.793 732.666, 519.124 740.225, 522.007 746 C 524.890 751.775, 527.681 756.775, 528.210 757.112 C 528.738 757.448, 529.132 758.011, 529.085 758.362 C 528.818 760.358, 529.113 761.048, 530 760.500 C 530.550 760.160, 531.004 759.121, 531.009 758.191 C 531.026 755.110, 539.747 735.074, 545.365 725.209 C 558.147 702.765, 574.322 685.163, 590.578 676.008 C 593.835 674.174, 596.630 672.580, 596.788 672.465 C 596.947 672.350, 595.610 669.897, 593.818 667.014 C 590.764 662.101, 590.515 661.007, 589.861 649.636 C 589.477 642.961, 589.126 634.752, 589.081 631.392 L 589 625.285 579.710 625.251 C 557.430 625.170, 537.750 617.141, 529.023 604.570 C 526.443 600.853, 525.222 600.166, 514.959 596.655 C 501.972 592.212, 494 587.746, 494 584.914 C 494 582.080, 497.016 582.503, 504.749 586.421 C 518.791 593.537, 540.390 598.781, 557.172 599.149 C 562.853 599.274, 568.130 599.852, 568.900 600.435 C 571.414 602.336, 584.440 600.869, 596.375 597.340 C 597.766 596.929, 598.037 597.136, 597.425 598.143 C 596.972 598.889, 598.153 598.047, 600.050 596.270 C 601.948 594.494, 607.962 590.321, 613.416 586.997 C 626.250 579.177, 635.509 571.545, 642.438 563.076 C 645.497 559.337, 648 555.990, 648 555.639 C 648 555.287, 643.272 555, 637.493 555 C 626.241 555, 609.988 552.924, 601.172 550.362 C 598.194 549.496, 595.249 548.712, 594.628 548.620 C 594.008 548.528, 592.068 547.859, 590.317 547.133 C 587.155 545.822, 587.077 545.863, 578.163 553.524 C 569.859 560.661, 569.141 561.576, 568.503 565.831 C 568.104 568.488, 566.976 571.154, 565.829 572.149 C 564.737 573.095, 559.716 574.806, 554.672 575.950 C 549.627 577.094, 543.579 578.534, 541.231 579.150 C 535.969 580.531, 524.588 579.731, 522.705 577.848 C 518.560 573.703, 518.078 569.536, 521.037 563.423 C 522.657 560.078, 524.091 558.777, 528.025 557.084 C 530.748 555.913, 534.331 554.684, 535.988 554.352 C 537.645 554.021, 539.034 553.244, 539.077 552.625 C 539.119 552.006, 539.379 550.600, 539.656 549.500 C 541.193 543.382, 541.185 542.008, 539.612 541.405 C 538.725 541.064, 538 540.307, 538 539.722 C 538 539.136, 537.347 537.936, 536.550 537.055 C 535.752 536.174, 533.319 532.088, 531.143 527.976 C 528.966 523.864, 526.747 520.595, 526.212 520.710 C 524.766 521.023, 522.507 518.179, 519.193 511.873 C 515.250 504.370, 514.068 500.553, 512.588 490.543 C 511.208 481.208, 511.917 471.753, 514.616 463.500 C 516.877 456.587, 521.250 445.604, 521.983 445 C 523.139 444.048, 530.713 431.491, 531.354 429.466 C 533.230 423.537, 530.314 407, 527.392 407 C 526.717 407, 522.920 402.050, 518.955 396 C 514.991 389.950, 511.574 385, 511.362 385 C 511.150 385, 511.227 386.688, 511.533 388.750 M 410.885 446.319 C 406.384 448.003, 401.302 451.568, 400.040 453.925 C 399.371 455.176, 399.630 457.151, 400.904 460.505 C 403.051 466.162, 406.893 468.826, 410.521 467.173 C 412.541 466.252, 412.840 466.451, 413.364 469.068 C 414.300 473.749, 416.967 476.949, 422.099 479.550 C 424.733 480.885, 427.250 482.595, 427.694 483.351 C 428.137 484.107, 430.258 486.812, 432.407 489.363 C 435.550 493.092, 436.939 494, 439.502 494 C 443.485 494, 446 491.348, 446 487.149 C 446 484.801, 444.916 482.780, 441.908 479.516 C 437.920 475.190, 437.853 475.001, 439.286 472.128 C 440.095 470.506, 440.595 467.902, 440.397 466.340 C 440.077 463.816, 440.120 463.765, 440.786 465.883 C 441.465 468.043, 441.662 468.113, 442.892 466.630 C 446.093 462.773, 440.902 452.785, 433.417 448.398 C 427.847 445.134, 416.781 444.113, 410.885 446.319 M 503.709 470.624 C 503.319 471.014, 503 472.188, 503 473.233 C 503 474.716, 503.604 475.063, 505.750 474.816 C 507.728 474.589, 508.500 473.938, 508.500 472.500 C 508.500 470.491, 505.153 469.181, 503.709 470.624 M 490.667 471.667 C 490.300 472.033, 490 473.158, 490 474.167 C 490 475.456, 490.742 476, 492.500 476 C 494.500 476, 495 475.500, 495 473.500 C 495 471.742, 494.456 471, 493.167 471 C 492.158 471, 491.033 471.300, 490.667 471.667 M 497.993 482.508 C 496.226 484.637, 497.560 487.202, 500.235 486.820 C 503.119 486.409, 503.702 483.446, 501.165 482.088 C 499.689 481.298, 498.912 481.401, 497.993 482.508 M 504.247 811.153 C 502.760 812.640, 502.577 814.380, 504 813.500 C 504.550 813.160, 505 813.299, 505 813.810 C 505 814.320, 506.425 814.572, 508.167 814.369 C 511.907 813.933, 512.109 813.795, 511.186 812.300 C 510.068 810.492, 505.640 809.760, 504.247 811.153 M 740.490 858.016 C 740.144 858.575, 739.446 858.776, 738.939 858.462 C 738.431 858.148, 737.225 858.352, 736.258 858.915 C 735.178 859.544, 735.005 859.951, 735.809 859.970 C 736.529 859.986, 736.840 860.450, 736.500 861 C 735.273 862.986, 737.705 861.943, 740 859.500 C 741.292 858.125, 742.072 857, 741.733 857 C 741.395 857, 740.835 857.457, 740.490 858.016 M 733.882 919.250 C 733.816 919.938, 733.824 921.008, 733.898 921.629 C 734.036 922.793, 730.463 924.334, 728.250 924.065 C 727.563 923.981, 727 924.742, 727 925.756 C 727 926.770, 726.551 928.049, 726.003 928.597 C 725.454 929.146, 724.809 934.523, 724.570 940.547 C 724.287 947.645, 724.409 949.916, 724.916 947 C 725.691 942.551, 725.703 942.580, 726.037 949.500 C 726.619 961.557, 726.587 962.464, 725.531 963.942 C 724.755 965.027, 724.820 965.191, 725.796 964.605 C 726.736 964.039, 727.004 964.466, 726.771 966.163 C 726.594 967.448, 726.054 969.132, 725.570 969.905 C 724.968 970.867, 725.054 971.085, 725.845 970.595 C 726.647 970.100, 727 971.142, 727 974 C 727 976.491, 726.605 977.874, 726 977.500 C 725.450 977.160, 725 977.584, 725 978.441 C 725 979.298, 725.450 980, 726 980 C 726.550 980, 727 981.125, 727 982.500 C 727 983.875, 726.438 985.007, 725.750 985.015 C 724.835 985.027, 724.865 985.262, 725.863 985.894 C 727.014 986.623, 727.014 986.842, 725.863 987.300 C 724.796 987.724, 724.785 987.859, 725.809 987.921 C 726.529 987.964, 726.803 988.509, 726.418 989.132 C 726.033 989.755, 725.607 992.567, 725.470 995.382 C 725.333 998.197, 724.888 1005.805, 724.480 1012.288 L 723.739 1024.076 733.620 1023.788 L 743.500 1023.500 743.161 1020.119 C 742.841 1016.927, 742.966 1016.775, 745.411 1017.388 C 746.928 1017.769, 748 1017.616, 748 1017.019 C 748 1016.459, 747.663 1016.053, 747.250 1016.118 C 743.975 1016.636, 743.741 1016.002, 744.536 1008.750 C 744.973 1004.763, 745.350 1000.263, 745.373 998.750 C 745.397 997.237, 745.761 996, 746.183 996 C 746.605 996, 746.666 994.580, 746.319 992.845 C 745.810 990.299, 745.960 989.853, 747.094 990.536 C 748.242 991.228, 748.274 991.105, 747.271 989.865 C 745.800 988.046, 746.711 974.703, 748.242 975.649 C 748.786 975.986, 748.751 975.403, 748.162 974.302 C 747.591 973.235, 747.262 971.494, 747.432 970.431 C 747.602 969.369, 747.348 967.740, 746.867 966.811 C 746.330 965.771, 746.396 964.873, 747.038 964.477 C 747.621 964.116, 747.772 962.876, 747.379 961.666 C 746.727 959.654, 746.451 956.847, 745.578 943.353 C 745.395 940.522, 744.895 937.640, 744.468 936.948 C 743.984 936.165, 744.097 935.942, 744.768 936.357 C 745.533 936.830, 745.548 935.934, 744.817 933.261 C 743.199 927.336, 740.768 923.911, 737.750 923.304 C 735.114 922.773, 734.569 921.991, 734.925 919.250 C 735.015 918.563, 734.843 918, 734.544 918 C 734.245 918, 733.947 918.563, 733.882 919.250 M 285.897 925.949 C 282.775 929.071, 281.322 929.905, 282.595 927.845 C 283.021 927.156, 282.871 926.961, 282.224 927.362 C 281.627 927.731, 280.856 927.575, 280.510 927.016 C 280.165 926.457, 279.475 926, 278.977 926 C 278.479 926, 279.068 927.042, 280.286 928.315 C 281.504 929.587, 282.809 930.479, 283.186 930.295 C 283.563 930.112, 283.503 931.245, 283.053 932.815 C 282.594 934.416, 282.639 936.390, 283.155 937.312 C 283.790 938.447, 283.527 939.814, 282.305 941.728 C 281.036 943.715, 280.955 944.170, 282.017 943.335 C 283.290 942.335, 283.539 943.087, 283.775 948.641 C 284.085 955.960, 283.521 957.677, 281.388 955.907 C 280.219 954.937, 280.075 955.031, 280.606 956.416 C 280.965 957.350, 281.875 957.878, 282.629 957.589 C 283.686 957.183, 284 958.301, 284 962.474 C 284 967.371, 283.807 967.848, 281.973 967.495 C 280.845 967.277, 280.211 967.532, 280.542 968.069 C 280.870 968.599, 281.560 968.772, 282.076 968.453 C 282.592 968.134, 283.302 968.622, 283.653 969.538 C 284.017 970.487, 283.692 971.582, 282.896 972.086 C 282.128 972.572, 281.988 972.976, 282.585 972.985 C 283.269 972.994, 283.744 976.378, 283.871 982.155 C 283.982 987.190, 284.294 991.666, 284.563 992.102 C 284.833 992.539, 284.029 992.711, 282.777 992.486 C 280.694 992.111, 280.649 992.189, 282.250 993.398 C 283.726 994.514, 284 996.403, 284 1005.467 C 284 1015.268, 283.846 1016.160, 282.250 1015.605 C 280.658 1015.050, 280.664 1015.123, 282.315 1016.405 C 283.313 1017.181, 284.047 1018.420, 283.947 1019.158 C 283.297 1023.910, 283.483 1024, 294.040 1024 L 304.080 1024 303.573 979.250 C 303.294 954.638, 302.791 932.925, 302.455 931 C 301.387 924.888, 299.794 923.394, 294.071 923.133 C 289.537 922.926, 288.597 923.250, 285.897 925.949 M 304.343 940.500 C 304.346 944.900, 304.522 946.576, 304.733 944.224 C 304.945 941.872, 304.942 938.272, 304.727 936.224 C 304.512 934.176, 304.339 936.100, 304.343 940.500 M 863.280 933.827 C 862.508 934.304, 862.425 935.058, 863.037 936.026 C 863.802 937.236, 863.972 937.157, 863.985 935.583 C 863.993 934.529, 864.337 934.004, 864.750 934.417 C 865.163 934.829, 865.500 935.654, 865.500 936.250 C 865.500 936.846, 866.063 937.521, 866.750 937.750 C 868.583 938.361, 868.273 936.557, 866.227 934.706 C 865.252 933.823, 863.926 933.428, 863.280 933.827 M 505.867 996.463 C 505.793 996.483, 505.653 997.873, 505.555 999.551 C 505.413 1001.997, 505.787 1002.622, 507.439 1002.699 C 508.572 1002.753, 508.935 1002.579, 508.244 1002.313 C 507.553 1002.047, 507.259 1001.391, 507.590 1000.855 C 507.927 1000.309, 508.779 1000.676, 509.526 1001.690 C 510.796 1003.414, 510.963 1003.390, 513.031 1001.184 C 515.127 998.946, 515.138 998.820, 513.351 997.468 C 511.943 996.403, 507.983 995.871, 505.867 996.463" stroke="none" fill="#fee7c7" fill-rule="evenodd"/><path d="M 595.771 61.750 C 593.136 64.747, 590.323 71.146, 587.529 80.500 C 583.287 94.697, 582.181 97.624, 575.392 112.612 C 566.747 131.698, 566.962 136.324, 576.691 140.627 C 581.134 142.592, 582.631 144.028, 586.685 150.219 C 596.501 165.209, 612.171 177.486, 633.173 186.643 C 649.321 193.683, 678.314 203.178, 682.549 202.813 L 686.171 202.500 681.134 195.858 C 673.974 186.417, 664.067 176.848, 652.516 168.217 C 647.024 164.114, 641.869 160.503, 641.060 160.193 C 640.251 159.882, 638.870 159.013, 637.991 158.261 C 636.543 157.020, 636.660 156.356, 639.250 151.130 C 642.940 143.685, 643.706 136.303, 641.628 128.193 C 638.245 114.989, 615.672 74.488, 605.709 63.750 C 601.868 59.609, 598.287 58.888, 595.771 61.750 M 446.021 99.782 C 441.944 103.083, 440.756 110.587, 440.256 136.191 C 439.661 166.686, 441.119 185.838, 444.466 191.491 C 447.317 196.305, 454.357 203.297, 458.500 205.429 L 461.500 206.973 461.582 218.736 C 461.670 231.254, 463.403 240.254, 467.534 249.645 L 469.797 254.790 466.817 260.645 C 462.892 268.356, 463.262 273.686, 468.282 281.754 L 471.858 287.500 466.679 288.013 L 461.500 288.526 469 289.200 C 473.125 289.571, 482.350 290.618, 489.500 291.527 C 506.059 293.633, 515.535 293.067, 521.285 289.629 C 537.283 280.066, 552.416 256.145, 556.700 233.648 C 561.400 208.963, 552.771 172.059, 537.493 151.500 C 529.973 141.382, 527.006 140.979, 515.528 148.517 C 511.762 150.991, 508.594 152.899, 508.488 152.757 C 508.382 152.616, 502.662 145.750, 495.777 137.500 C 479.588 118.103, 464.709 104.218, 455.500 99.913 C 450.482 97.568, 448.784 97.545, 446.021 99.782 M 607.295 276.639 C 599.128 279.137, 594.402 283.837, 592.029 291.822 C 585.926 312.348, 585.502 348.348, 591.144 366.798 C 592.810 372.244, 594.159 374.441, 598.347 378.525 C 605.885 385.875, 611.337 388.096, 624.194 389.053 C 636.256 389.951, 641.773 389.044, 654.755 384.029 C 676.172 375.758, 691.766 363.011, 694.954 351.170 C 698.198 339.125, 684.767 314.973, 662 291.908 C 651.577 281.348, 649.891 280.046, 644 278.003 C 635.317 274.993, 615.130 274.242, 607.295 276.639 M 776.183 373.519 C 766.442 377.750, 749.287 402.587, 743.923 420.226 C 739.974 433.212, 742.475 446.623, 751.758 462.228 C 757.586 472.025, 766.089 481, 769.543 481 C 773.094 481, 777.263 473.990, 781.427 461.012 C 788.005 440.512, 788.500 436.943, 788.500 410 C 788.500 382.879, 787.584 376.268, 783.450 373.559 C 780.595 371.689, 780.399 371.688, 776.183 373.519 M 525.894 406.299 C 526.337 406.739, 529.804 406.959, 533.599 406.789 L 540.500 406.480 532.795 405.990 C 528.558 405.720, 525.452 405.860, 525.894 406.299 M 474.287 413.740 C 477.469 413.939, 482.419 413.937, 485.287 413.736 C 488.154 413.535, 485.550 413.372, 479.500 413.374 C 473.450 413.376, 471.104 413.541, 474.287 413.740 M 437.776 414.733 C 440.128 414.945, 443.728 414.942, 445.776 414.727 C 447.824 414.512, 445.900 414.339, 441.500 414.343 C 437.100 414.346, 435.424 414.522, 437.776 414.733 M 386.328 462.500 C 386.333 466.350, 386.513 467.802, 386.730 465.728 C 386.946 463.653, 386.943 460.503, 386.722 458.728 C 386.501 456.952, 386.324 458.650, 386.328 462.500 M 430.474 480.043 C 429.665 481.351, 436.825 490.225, 438.294 489.735 C 440.448 489.017, 439.966 487.320, 436.439 483.200 C 432.726 478.862, 431.579 478.255, 430.474 480.043 M 304.328 914.500 C 304.333 918.350, 304.513 919.802, 304.730 917.728 C 304.946 915.653, 304.943 912.503, 304.722 910.728 C 304.501 908.952, 304.324 910.650, 304.328 914.500 M 724.310 918.500 C 724.315 921.800, 724.502 923.029, 724.725 921.232 C 724.947 919.435, 724.943 916.735, 724.715 915.232 C 724.486 913.729, 724.304 915.200, 724.310 918.500 M 305.382 976.500 C 305.384 983.100, 305.546 985.670, 305.741 982.211 C 305.937 978.752, 305.936 973.352, 305.738 970.211 C 305.540 967.070, 305.380 969.900, 305.382 976.500 M 723.378 979 C 723.378 985.325, 723.541 987.913, 723.739 984.750 C 723.937 981.587, 723.937 976.413, 723.739 973.250 C 723.541 970.087, 723.378 972.675, 723.378 979" stroke="none" fill="#4c4d4d" fill-rule="evenodd"/><path d="M 562 135.126 C 551.965 137.159, 531 142.296, 531 142.722 C 531 142.972, 532.955 145.412, 535.345 148.144 C 550.725 165.726, 561.352 203.261, 557.997 228.156 C 556.567 238.767, 554.614 245.652, 550.460 254.727 C 543.566 269.786, 529.794 286.017, 519.806 290.852 C 516.060 292.665, 513.664 292.990, 504.434 292.934 C 498.420 292.897, 489.225 292.198, 484 291.381 C 478.775 290.563, 472.025 289.666, 469 289.387 C 465.312 289.047, 460.787 287.524, 455.264 284.763 C 441.894 278.080, 434.397 279.271, 430.371 288.718 C 427.206 296.145, 429.129 300.844, 437.500 306.141 C 456.298 318.035, 467.228 324.125, 473 325.921 C 484.447 329.484, 519.896 340, 520.458 340 C 520.756 340, 521 342.667, 521 345.928 C 521 354.178, 522.769 366.042, 525.148 373.743 C 527.460 381.228, 543.527 414.226, 548.255 421.199 C 550.008 423.784, 552.467 426.447, 553.721 427.118 C 554.974 427.789, 555.982 428.599, 555.960 428.919 C 555.938 429.239, 553.800 431.186, 551.210 433.246 C 536.148 445.223, 527.114 456.330, 524.162 466.500 C 520.309 479.774, 518 491.175, 518 496.930 C 518 503.048, 519.557 509, 521.157 509 C 521.685 509, 521.890 509.369, 521.611 509.820 C 521.332 510.272, 522.631 513.084, 524.498 516.070 C 526.365 519.057, 528.804 523.441, 529.918 525.813 C 531.032 528.185, 533.306 532.145, 534.972 534.613 C 536.637 537.081, 538 539.480, 538 539.943 C 538 540.407, 538.725 541.064, 539.612 541.405 C 541.156 541.997, 541.148 544.528, 539.582 550 C 539.346 550.825, 539.119 552.006, 539.077 552.625 C 539.034 553.244, 537.645 554.021, 535.988 554.352 C 534.331 554.684, 530.748 555.913, 528.025 557.084 C 524.091 558.777, 522.657 560.078, 521.037 563.423 C 518.078 569.536, 518.560 573.703, 522.705 577.848 C 524.588 579.731, 535.969 580.531, 541.231 579.150 C 543.579 578.534, 549.627 577.094, 554.672 575.950 C 559.716 574.806, 564.737 573.095, 565.829 572.149 C 566.976 571.154, 568.104 568.488, 568.503 565.831 C 569.141 561.576, 569.859 560.661, 578.163 553.524 C 587.077 545.863, 587.155 545.822, 590.317 547.133 C 592.068 547.859, 594.008 548.528, 594.628 548.620 C 595.249 548.712, 598.194 549.496, 601.172 550.362 C 609.827 552.878, 626.179 555.002, 636.743 554.982 C 656.962 554.944, 677.154 550.637, 700.500 541.384 C 722.608 532.622, 724.381 531.882, 726.500 530.549 C 727.992 529.610, 730.278 529.520, 735.500 530.195 C 754.280 532.621, 776.805 526.809, 787.884 516.680 C 790.932 513.892, 798 505.063, 798 504.042 C 798 503.613, 794.687 503.050, 790.639 502.791 C 785.116 502.436, 781.681 501.544, 776.889 499.218 C 766.406 494.131, 766.424 494.157, 768.903 487.531 C 771.455 480.708, 771.452 481, 768.978 481 C 764.017 481, 751.412 465.152, 745.826 451.891 C 741.412 441.413, 740.337 432.974, 742.306 424.258 C 744.083 416.388, 750.392 402.768, 756.578 393.448 C 761.444 386.116, 771.422 375.350, 775.126 373.435 C 778.422 371.730, 782.177 371.577, 783.686 373.086 C 785.805 375.205, 779.524 351.248, 772.258 329.500 C 766.819 313.221, 759.617 298.527, 748.491 281.015 C 731.464 254.214, 713.238 232.742, 697.399 220.824 C 692.408 217.069, 690.724 215.007, 688.147 209.500 C 685.489 203.821, 684.675 202.852, 682.943 203.305 C 680.259 204.007, 671.037 201.390, 652.215 194.588 C 624.564 184.594, 611.050 177.099, 598.166 164.609 C 594.132 160.699, 588.832 154.292, 586.388 150.372 C 582.585 144.270, 581.241 142.951, 577.054 141.211 C 574.364 140.093, 571.400 138.013, 570.467 136.589 C 568.628 133.783, 568.629 133.783, 562 135.126 M 608.874 275.845 C 592.338 280.160, 588.255 289.844, 587.307 327 C 586.405 362.352, 590.564 376.280, 604.451 384.418 C 614.415 390.258, 631.302 391.722, 645.020 387.936 C 660.805 383.579, 678.371 373.623, 687.681 363.756 C 697.803 353.029, 698.443 345.240, 690.512 329.265 C 681.482 311.074, 657.850 283.456, 647.481 278.975 C 635.899 273.969, 620.762 272.742, 608.874 275.845 M 420.288 454.629 C 416.114 456.687, 412.540 463.778, 413.304 468.484 C 414.120 473.512, 416.774 476.852, 422.099 479.550 C 424.733 480.885, 427.250 482.595, 427.694 483.351 C 428.137 484.107, 430.258 486.812, 432.407 489.363 C 435.550 493.092, 436.939 494, 439.502 494 C 443.485 494, 446 491.348, 446 487.149 C 446 484.801, 444.916 482.780, 441.908 479.516 C 437.918 475.187, 437.852 475.002, 439.289 472.123 C 442.153 466.381, 438.748 457.532, 432.540 454.586 C 428.331 452.589, 424.399 452.602, 420.288 454.629 M 430.667 478.667 C 429.327 480.007, 430.070 482.204, 433.167 486.059 C 436.178 489.805, 439.219 491.073, 440.443 489.092 C 441.049 488.112, 433.482 478, 432.143 478 C 431.698 478, 431.033 478.300, 430.667 478.667 M 419.362 682.500 C 419.045 683.325, 419.035 684.650, 419.340 685.443 C 420.150 687.555, 448.156 710.640, 460.611 719.463 C 473.242 728.411, 495.587 740.896, 500.352 741.670 C 502.736 742.056, 503.865 741.795, 504.259 740.766 C 505.145 738.458, 504.168 737.717, 491.529 731.111 C 472.305 721.064, 455.546 709.175, 431.113 688.250 C 422.490 680.865, 420.384 679.835, 419.362 682.500 M 617.106 688.363 C 608.618 699.365, 593.401 712.149, 572.136 726.143 C 564.785 730.980, 557.964 735.194, 556.978 735.507 C 554.491 736.296, 553.878 738.459, 555.521 740.653 C 556.855 742.434, 557.058 742.415, 561.202 740.112 C 585.010 726.885, 615.295 702.511, 623.770 689.757 C 625.810 686.686, 626.032 685.743, 625.006 684.507 C 622.936 682.013, 621.441 682.743, 617.106 688.363 M 634.500 694.740 C 616.835 718.967, 588.541 742.402, 560.780 755.801 C 551.063 760.490, 549.017 761.854, 549.235 763.500 C 549.663 766.731, 553.310 766.406, 561.698 762.390 C 591.381 748.177, 620.220 724.385, 640.154 697.663 C 646.465 689.204, 647.680 684.948, 643.750 685.070 C 642.094 685.121, 639.651 687.676, 634.500 694.740 M 407.917 688.600 C 406.214 690.652, 408.831 695.449, 418 707.085 C 430.494 722.940, 453.385 740.127, 478.270 752.336 C 494.409 760.254, 509.304 766.200, 513.429 766.372 C 516.010 766.480, 516.500 766.130, 516.500 764.184 C 516.500 762.159, 515.179 761.372, 506 757.930 C 466.651 743.177, 432.837 719.487, 417.270 695.768 C 411.091 686.353, 410.291 685.740, 407.917 688.600 M 244.378 720.803 C 244.651 721.245, 243.553 721.514, 241.937 721.403 C 239.818 721.256, 238.978 721.659, 238.921 722.850 C 238.878 723.757, 238.630 723.983, 238.372 723.351 C 238.034 722.528, 236.994 722.644, 234.700 723.760 C 228.858 726.602, 220.993 732.180, 221.553 733.085 C 221.856 733.576, 221.444 733.724, 220.637 733.414 C 219.683 733.048, 215.091 736.916, 207.504 744.475 C 197.778 754.165, 196.040 756.344, 197.060 757.572 C 198.068 758.786, 197.991 758.934, 196.625 758.409 C 194.893 757.745, 193.921 758.728, 186.730 768.419 C 184.657 771.214, 181.957 774.794, 180.730 776.376 C 179.504 777.957, 177.825 780.432, 177 781.876 C 176.175 783.319, 175.215 784.725, 174.866 785 C 173.437 786.127, 154.667 816.527, 154.667 817.714 C 154.667 818.421, 154.363 819, 153.992 819 C 152.717 819, 147.879 828.995, 148.594 830.152 C 149.015 830.834, 148.873 831.040, 148.247 830.653 C 146.360 829.487, 125.381 869.264, 124.745 875.214 C 124.610 876.471, 124.136 877.768, 123.691 878.095 C 121.826 879.468, 107.115 924.019, 104.570 936 C 104.278 937.375, 102.026 946.475, 99.566 956.221 C 97.106 965.968, 94.960 975.643, 94.797 977.721 C 94.634 979.800, 94.230 981.725, 93.900 982 C 93.203 982.580, 86.977 1014.270, 86.417 1020.083 L 86.039 1024 91.320 1024 C 94.224 1024, 97.206 1023.438, 97.947 1022.750 C 99.024 1021.750, 99.152 1021.750, 98.588 1022.750 C 98.057 1023.691, 99.396 1024, 104 1024 C 108.628 1024, 109.935 1023.696, 109.367 1022.750 C 108.799 1021.804, 109.004 1021.815, 110.211 1022.792 C 111.514 1023.847, 111.900 1023.847, 112.324 1022.792 C 112.696 1021.865, 112.864 1021.843, 112.921 1022.713 C 112.982 1023.645, 123.450 1023.934, 158 1023.958 C 198.611 1023.986, 206.486 1023.573, 201.750 1021.662 C 200.771 1021.267, 200.778 1021.141, 201.781 1021.079 C 202.486 1021.036, 203.300 1021.618, 203.590 1022.374 C 204.338 1024.324, 277.425 1024.705, 279.814 1022.771 C 281.035 1021.783, 281.217 1021.778, 280.633 1022.750 C 280.132 1023.583, 280.547 1024, 281.874 1024 C 283.473 1024, 283.848 1023.359, 283.776 1020.750 C 283.726 1018.962, 282.969 1016.936, 282.093 1016.248 C 280.665 1015.125, 280.681 1015.058, 282.250 1015.605 C 283.846 1016.160, 284 1015.268, 284 1005.467 C 284 996.403, 283.726 994.514, 282.250 993.398 C 280.649 992.189, 280.694 992.111, 282.777 992.486 C 284.029 992.711, 284.833 992.539, 284.563 992.102 C 284.294 991.666, 283.982 987.190, 283.871 982.155 C 283.744 976.378, 283.269 972.994, 282.585 972.985 C 281.988 972.976, 282.128 972.572, 282.896 972.086 C 283.692 971.582, 284.017 970.487, 283.653 969.538 C 283.302 968.622, 282.592 968.134, 282.076 968.453 C 281.560 968.772, 280.870 968.599, 280.542 968.069 C 280.211 967.532, 280.845 967.277, 281.973 967.495 C 283.807 967.848, 284 967.371, 284 962.474 C 284 958.301, 283.686 957.183, 282.629 957.589 C 281.875 957.878, 280.965 957.350, 280.606 956.416 C 280.075 955.031, 280.219 954.937, 281.388 955.907 C 283.521 957.677, 284.085 955.960, 283.775 948.641 C 283.539 943.087, 283.290 942.335, 282.017 943.335 C 280.955 944.170, 281.036 943.715, 282.305 941.728 C 283.527 939.814, 283.790 938.447, 283.155 937.312 C 282.639 936.390, 282.594 934.416, 283.053 932.815 C 283.503 931.245, 283.563 930.112, 283.186 930.295 C 282.809 930.479, 281.504 929.587, 280.286 928.315 C 279.068 927.042, 278.479 926, 278.977 926 C 279.475 926, 280.165 926.457, 280.510 927.016 C 280.856 927.575, 281.627 927.731, 282.224 927.362 C 282.871 926.961, 283.021 927.156, 282.595 927.845 C 281.322 929.905, 282.775 929.071, 285.897 925.949 C 288.597 923.250, 289.537 922.926, 294.071 923.133 C 299.795 923.394, 301.387 924.888, 302.454 931 C 302.791 932.925, 303.293 954.505, 303.572 978.956 C 303.850 1003.406, 304.285 1023.619, 304.539 1023.872 C 305.983 1025.316, 304.154 903.545, 301.980 853.500 C 300.471 818.756, 298.362 792.669, 297.123 793.413 C 296.780 793.619, 296.420 791.473, 296.322 788.644 C 295.915 776.884, 287.355 752.323, 279.737 741.055 C 270.369 727.198, 260.116 720, 249.745 720 C 246.520 720, 244.105 720.361, 244.378 720.803 M 753 733.507 C 754.403 735.210, 754.355 735.250, 752.250 734.129 C 750.617 733.258, 749.452 733.223, 748 734 C 745.271 735.460, 742.663 739.646, 743.568 741.111 C 744.004 741.815, 743.886 742.048, 743.283 741.675 C 741.587 740.627, 736.320 756.786, 737.422 759.657 C 737.727 760.453, 737.607 760.875, 737.155 760.596 C 736.231 760.025, 733.552 775.885, 734.424 776.758 C 734.731 777.065, 734.479 777.922, 733.864 778.663 C 733.182 779.486, 733 781.596, 733.397 784.079 C 733.773 786.431, 733.665 787.911, 733.141 787.587 C 732.024 786.897, 730.539 803.446, 731.568 805.111 C 732 805.809, 731.886 806.048, 731.296 805.683 C 729.793 804.754, 727.685 836.549, 726.004 885.500 C 724.734 922.478, 724.734 929.283, 726 928.500 C 726.550 928.160, 727 926.989, 727 925.897 C 727 924.805, 727.563 923.981, 728.250 924.065 C 730.645 924.357, 734.110 922.729, 733.649 921.528 C 733.394 920.863, 733.612 919.684, 734.134 918.909 C 734.935 917.720, 735.058 917.734, 734.923 919 C 734.595 922.071, 735.070 922.764, 737.888 923.328 C 740.058 923.762, 741.302 924.992, 742.891 928.275 C 744.055 930.679, 744.986 933.738, 744.961 935.073 C 744.936 936.408, 745.139 939.975, 745.413 943 C 745.687 946.025, 746.084 950.975, 746.294 954 C 746.505 957.025, 746.993 960.475, 747.379 961.666 C 747.772 962.876, 747.621 964.116, 747.038 964.477 C 746.396 964.873, 746.330 965.771, 746.867 966.811 C 747.348 967.740, 747.602 969.369, 747.432 970.431 C 747.262 971.494, 747.591 973.235, 748.162 974.302 C 748.751 975.403, 748.786 975.986, 748.242 975.649 C 746.711 974.703, 745.800 988.046, 747.271 989.865 C 748.274 991.105, 748.242 991.228, 747.094 990.536 C 745.960 989.853, 745.810 990.299, 746.319 992.845 C 746.666 994.580, 746.605 996, 746.183 996 C 745.761 996, 745.397 997.237, 745.373 998.750 C 745.350 1000.263, 744.973 1004.763, 744.536 1008.750 C 743.741 1016.002, 743.975 1016.636, 747.250 1016.118 C 747.663 1016.053, 748 1016.459, 748 1017.019 C 748 1017.611, 746.935 1017.771, 745.461 1017.401 C 743.072 1016.801, 742.936 1016.973, 743.160 1020.305 L 743.398 1023.847 764.629 1023.827 C 781.912 1023.810, 785.961 1023.545, 786.399 1022.403 C 786.975 1020.902, 792 1020.417, 792 1021.862 C 792 1022.337, 790.875 1022.601, 789.500 1022.451 C 788.125 1022.300, 787 1022.550, 787 1023.007 C 787 1023.464, 811.042 1023.873, 840.427 1023.918 C 890.495 1023.993, 893.883 1023.888, 894.311 1022.249 C 894.746 1020.585, 894.774 1020.585, 894.884 1022.250 C 894.978 1023.664, 895.945 1024, 899.917 1024 C 902.914 1024, 905.030 1023.512, 905.338 1022.750 C 905.741 1021.750, 905.858 1021.750, 905.921 1022.750 C 906.009 1024.142, 917 1024.592, 917 1023.204 C 917 1021.759, 911.005 993.562, 910.046 990.500 C 909.530 988.850, 908.576 984.696, 907.927 981.269 C 907.278 977.842, 906.359 975.278, 905.885 975.571 C 905.411 975.864, 905.282 975.428, 905.599 974.602 C 906.292 972.798, 895.889 933.951, 894.880 934.574 C 894.493 934.814, 894.303 934.220, 894.458 933.255 C 894.821 930.995, 893.167 927.779, 892.009 928.494 C 891.519 928.797, 891.348 927.572, 891.629 925.772 C 891.984 923.501, 890.869 918.830, 887.983 910.500 C 881.528 891.866, 877.945 883, 876.868 883 C 876.326 883, 876.144 882.576, 876.465 882.057 C 877.339 880.643, 867.909 860.938, 866.712 861.678 C 866.135 862.034, 865.994 861.818, 866.389 861.180 C 867.124 859.990, 864.667 855.080, 853.539 835.500 C 845.578 821.491, 843.117 817.810, 842.126 818.422 C 841.729 818.667, 840.751 818.405, 839.952 817.840 C 838.768 817.001, 838.823 816.915, 840.250 817.374 C 843.078 818.284, 842.332 816.243, 836.405 806.849 C 826.509 791.167, 815.964 776.904, 814.798 777.625 C 814.119 778.045, 813.974 777.851, 814.423 777.124 C 815.142 775.961, 798.892 756.279, 796.434 755.336 C 795.791 755.090, 793.067 752.769, 790.381 750.180 C 783.003 743.069, 764.036 733.096, 756.217 732.217 C 751.747 731.714, 751.578 731.781, 753 733.507 M 506.655 804.829 C 504.137 807.611, 504.616 809.757, 507.916 810.482 C 511.200 811.203, 512.960 813.953, 510.219 814.079 C 509.124 814.129, 508.966 814.345, 509.782 814.673 C 512.129 815.616, 516 812.166, 516 809.132 C 516 803.836, 510.038 801.091, 506.655 804.829 M 740.490 858.016 C 740.144 858.575, 739.446 858.776, 738.939 858.462 C 738.431 858.148, 737.225 858.352, 736.258 858.915 C 735.178 859.544, 735.005 859.951, 735.809 859.970 C 736.529 859.986, 736.840 860.450, 736.500 861 C 735.273 862.986, 737.705 861.943, 740 859.500 C 741.292 858.125, 742.072 857, 741.733 857 C 741.395 857, 740.835 857.457, 740.490 858.016 M 506.751 865.750 C 505.894 866.712, 505.037 869.525, 504.846 872 L 504.500 876.500 508 876.170 C 513.087 875.691, 516 873.493, 516 870.132 C 516 864.904, 510.026 862.074, 506.751 865.750 M 506.571 926.571 C 505.707 927.436, 505 929.424, 505 930.990 C 505 932.555, 504.771 934.436, 504.491 935.168 C 504.128 936.116, 505.131 936.579, 507.968 936.773 C 512.579 937.088, 516 934.482, 516 930.655 C 516 925.929, 509.869 923.274, 506.571 926.571 M 863.280 933.827 C 862.508 934.304, 862.425 935.058, 863.037 936.026 C 863.802 937.236, 863.972 937.157, 863.985 935.583 C 863.993 934.529, 864.337 934.004, 864.750 934.417 C 865.163 934.829, 865.500 935.654, 865.500 936.250 C 865.500 936.846, 866.063 937.521, 866.750 937.750 C 868.583 938.361, 868.273 936.557, 866.227 934.706 C 865.252 933.823, 863.926 933.428, 863.280 933.827 M 724.645 949.125 C 724.290 952.518, 724 967.002, 724 981.313 C 724 1006.816, 724.624 1014.293, 725.410 998.221 C 725.628 993.766, 726.102 989.644, 726.462 989.061 C 726.823 988.477, 726.529 987.993, 725.809 987.985 C 724.771 987.973, 724.782 987.791, 725.863 987.106 C 727.014 986.377, 727.014 986.158, 725.863 985.700 C 724.895 985.315, 724.862 985.135, 725.750 985.079 C 727.223 984.986, 727.468 980, 726 980 C 725.450 980, 725 979.298, 725 978.441 C 725 977.584, 725.450 977.160, 726 977.500 C 726.605 977.874, 727 976.491, 727 974 C 727 971.142, 726.647 970.100, 725.845 970.595 C 725.054 971.085, 724.968 970.867, 725.570 969.905 C 727.100 967.460, 727.258 963.731, 725.796 964.559 C 724.834 965.104, 724.783 964.985, 725.600 964.097 C 726.535 963.079, 726.494 944.193, 725.554 943.228 C 725.409 943.079, 724.999 945.732, 724.645 949.125 M 506.655 992.829 C 504.111 995.640, 504.640 996.823, 508.250 996.393 C 511.658 995.988, 516.716 998.774, 514.250 999.698 C 513.563 999.956, 513 1000.634, 513 1001.206 C 513 1001.833, 513.594 1001.752, 514.500 1001 C 516.779 999.109, 516.374 994.375, 513.777 992.557 C 510.852 990.507, 508.681 990.590, 506.655 992.829" stroke="none" fill="#fefffd" fill-rule="evenodd"/><path d="M 449.500 213.390 C 409.583 227.983, 383.168 254.082, 366.985 294.914 C 357.901 317.836, 352.628 346.661, 350.895 382.871 C 348.589 431.055, 344.544 476.937, 339.449 512.684 C 334.418 547.983, 337.225 562.979, 351.619 577.711 C 358.841 585.103, 368.280 589.978, 380.500 592.628 C 387.319 594.107, 394.481 594.373, 429 594.432 C 465.707 594.494, 470.088 594.677, 475.777 596.389 C 479.230 597.429, 482.314 598.020, 482.630 597.703 C 482.947 597.386, 482.024 593.576, 480.579 589.236 C 477.744 580.724, 472.868 572.436, 463.680 560.515 C 455.332 549.683, 449.358 537.864, 446.464 526.459 C 445.109 521.115, 444 515.478, 444 513.931 C 444 510.158, 443.144 509.837, 437.933 511.651 C 434.822 512.733, 430.965 513.075, 425 512.798 C 417.962 512.471, 415.582 511.903, 411.161 509.494 C 393.978 500.132, 382.717 473.571, 387.124 452.799 C 391.186 433.655, 405.226 422.989, 428 421.746 C 432.427 421.504, 432.505 421.439, 432.810 417.750 L 433.121 414 447.810 413.898 C 471.703 413.731, 512.799 412.540, 513.290 412 C 513.540 411.725, 512.938 405.201, 511.953 397.503 C 510.967 389.805, 510.318 383.349, 510.511 383.156 C 510.703 382.963, 514.337 388.024, 518.585 394.403 L 526.309 406 532.661 406 L 539.014 406 532.524 393.048 C 523.986 376.010, 521.283 365.647, 519.745 344.054 C 519.468 340.163, 520.771 340.674, 485 330.437 C 468.083 325.596, 461.570 322.576, 445.269 312.014 C 429.796 301.990, 430.173 302.309, 428.939 298.189 C 427.305 292.736, 429.088 287.008, 433.673 282.983 C 437.058 280.010, 437.732 279.813, 443.149 280.204 C 447.358 280.509, 450.947 281.653, 456.040 284.313 C 461.140 286.977, 464.352 288, 467.617 288 L 472.136 288 470.196 285.250 C 469.129 283.738, 467.152 280.250, 465.802 277.500 C 463.696 273.209, 463.469 271.825, 464.200 267.735 C 464.668 265.114, 465.940 261.387, 467.026 259.454 C 469.240 255.512, 469.450 253.767, 468.015 251.236 C 463.934 244.041, 460.503 226.262, 461.378 216.847 C 462.144 208.602, 462.397 208.675, 449.500 213.390 M 704.500 540.567 C 688.840 547.441, 670.139 552.699, 654.845 554.530 C 649.670 555.149, 648.938 555.559, 646.206 559.363 C 638.949 569.467, 625.825 580.593, 610 590.056 C 606.425 592.194, 602.375 594.858, 601 595.977 L 598.500 598.012 602.500 596.317 C 605.803 594.918, 611.641 594.499, 636 593.912 C 652.225 593.521, 669.977 592.671, 675.448 592.024 C 686.633 590.700, 705.761 586.129, 713.881 582.840 L 719.263 580.661 718.550 571.081 C 717.482 556.718, 714.634 537.702, 713.500 537.359 C 712.950 537.192, 708.900 538.636, 704.500 540.567" stroke="none" fill="#000101" fill-rule="evenodd"/><path d="M 609.142 667.978 C 604.453 669.244, 598.337 672.057, 592.283 675.732 C 575.769 685.757, 564.516 696.722, 552.684 714.314 C 546.228 723.914, 534.807 747.048, 532.434 755.333 C 531.384 759, 530.278 762, 529.976 762 C 529.674 762, 526.969 756.952, 523.964 750.783 C 508.038 718.087, 484.520 694.467, 452.500 679.007 C 433.002 669.594, 428.599 668.390, 417.602 669.465 C 410.475 670.162, 400.236 673.049, 396.500 675.416 C 395.400 676.113, 393.275 676.985, 391.779 677.354 C 390.282 677.722, 388.579 678.918, 387.994 680.012 C 387.015 681.841, 385.874 682.001, 373.715 682.010 C 332.150 682.043, 299.418 689.263, 267 705.549 C 261.225 708.450, 253.427 712.816, 249.670 715.251 L 242.840 719.678 248.366 719.220 C 252.989 718.836, 254.923 719.245, 260.196 721.717 C 281.197 731.565, 295.834 762.991, 299.918 807 C 302.582 835.717, 304.543 892.764, 305.616 972.750 L 306.303 1024 514.500 1024 L 722.698 1024 723.385 975.250 C 724.632 886.827, 726.447 840.072, 730.073 803 C 735.561 746.902, 741.832 729.704, 756.201 731.354 C 760.876 731.891, 772.318 736.786, 779 741.108 C 781.767 742.897, 781.471 742.443, 777.587 738.936 C 750.898 714.839, 719.633 696.929, 682.500 684.466 C 668.859 679.888, 666.542 678.817, 666.787 677.201 C 667.234 674.250, 665.270 673.288, 651.934 669.922 C 635.449 665.762, 619.961 665.058, 609.142 667.978 M 419.750 681.110 C 416.256 683.086, 417.915 685.817, 427.750 694.278 C 436.697 701.975, 451.290 713.671, 460.061 720.173 C 471.584 728.716, 498.841 743.306, 502.344 742.807 C 503.846 742.593, 504.595 741.679, 504.813 739.790 C 505.103 737.272, 504.405 736.719, 494.928 731.964 C 475.330 722.129, 460.622 712.109, 438.755 693.695 C 423.365 680.735, 422.005 679.835, 419.750 681.110 M 618.697 685.750 C 607.676 698.944, 587.955 715.430, 568.669 727.571 C 564.362 730.282, 559.412 733.415, 557.669 734.534 C 553.899 736.955, 553.033 740.412, 555.824 741.906 C 557.430 742.766, 559.714 741.785, 568.916 736.284 C 589.005 724.275, 608.319 708.848, 619.741 695.690 C 625.906 688.587, 627.140 685.540, 624.800 683.200 C 622.945 681.345, 622.072 681.710, 618.697 685.750 M 640.381 686.250 C 639.299 687.487, 635.739 692.100, 632.470 696.500 C 615.391 719.486, 583.917 744.631, 556.744 757 C 548.949 760.548, 546.836 762.893, 549.040 765.548 C 550.979 767.884, 553.209 767.314, 564.762 761.531 C 588.838 749.479, 610.264 733.117, 628.776 712.650 C 637.607 702.885, 647 690.071, 647 687.787 C 647 686.115, 645.031 684, 643.474 684 C 642.855 684, 641.463 685.013, 640.381 686.250 M 407.011 688.487 C 405.416 690.409, 405.944 691.645, 412.254 700.774 C 430.276 726.848, 467.007 751.631, 509.762 766.566 C 514.573 768.246, 515.161 768.267, 516.615 766.813 C 519.024 764.405, 517.499 761.319, 513.202 759.906 C 492.908 753.231, 465.758 739.235, 448.359 726.478 C 437.738 718.690, 422.495 703.044, 417 694.288 C 412.344 686.869, 409.651 685.305, 407.011 688.487 M 506.635 804.073 C 504.892 805.444, 504 807.108, 504 808.989 C 504 810.553, 503.438 812.040, 502.750 812.292 C 501.750 812.658, 501.750 813.016, 502.751 814.076 C 503.527 814.899, 505.806 815.307, 508.751 815.150 C 516.510 814.739, 519.433 809.342, 514.545 804.455 C 511.551 801.460, 510.049 801.387, 506.635 804.073 M 506.653 865.250 C 503.638 868.009, 502.409 875.265, 504.643 877.119 C 505.735 878.025, 506.366 878.034, 507.242 877.158 C 507.879 876.521, 509.634 876, 511.143 876 C 514.092 876, 517 872.887, 517 869.732 C 517 867.538, 512.687 863, 510.601 863 C 509.782 863, 508.005 864.013, 506.653 865.250 M 506.189 926.039 C 504.916 927.225, 504 929.283, 504 930.957 C 504 932.541, 503.740 934.514, 503.422 935.342 C 502.653 937.347, 506.747 939.653, 508.307 938.093 C 508.908 937.492, 510.409 937, 511.643 937 C 514.101 937, 517 933.608, 517 930.732 C 517 928.361, 512.617 924, 510.234 924 C 509.213 924, 507.392 924.918, 506.189 926.039 M 506.593 992.106 C 504.165 994.015, 503.960 994.690, 504.393 999.356 C 504.656 1002.185, 504.900 1004.668, 504.935 1004.872 C 504.971 1005.077, 505.563 1004.789, 506.250 1004.233 C 506.938 1003.676, 508.823 1003.227, 510.440 1003.235 C 513.694 1003.252, 517 1000.031, 517 996.844 C 517 994.601, 512.751 990, 510.680 990 C 509.904 990, 508.065 990.948, 506.593 992.106" stroke="none" fill="#114f30" fill-rule="evenodd"/></svg>